<svg width="215" height="215" viewBox="0 0 215 215" fill="none" xmlns="http://www.w3.org/2000/svg">
<g filter="url(#filter0_d)">
<circle cx="107.867" cy="92.8671" r="87.1329" fill="white"/>
</g>
<path d="M83.7913 99.3764C83.7913 102.022 83.4926 104.262 82.8953 106.096C82.298 107.888 81.4233 109.339 80.2713 110.448C79.1193 111.558 77.69 112.368 75.9833 112.88C74.3193 113.35 72.3993 113.584 70.2233 113.584C68.0473 113.584 66.106 113.35 64.3993 112.88C62.7353 112.368 61.3273 111.558 60.1753 110.448C59.0233 109.339 58.1273 107.888 57.4873 106.096C56.89 104.262 56.5913 102.022 56.5913 99.3764V68.3364H65.3593V100.592C65.3593 104.219 66.9806 106.032 70.2233 106.032C71.8873 106.032 73.1033 105.584 73.8713 104.688C74.6393 103.75 75.0233 102.384 75.0233 100.592V68.3364H83.7913V99.3764ZM108.603 113.136L100.155 77.1684V113.136H92.4113V68.3364H105.147L113.723 105.008V68.3364H121.339V113.136H108.603ZM150.062 90.5444C150.062 87.259 149.956 84.5924 149.742 82.5444C149.529 80.4537 149.188 78.8324 148.718 77.6804C148.249 76.4857 147.63 75.675 146.862 75.2484C146.094 74.8217 145.134 74.6084 143.982 74.6084C142.83 74.6084 141.87 74.8217 141.102 75.2484C140.334 75.675 139.716 76.4857 139.246 77.6804C138.777 78.8324 138.436 80.4537 138.222 82.5444C138.009 84.5924 137.902 87.259 137.902 90.5444C137.902 93.787 138.009 96.4537 138.222 98.5444C138.436 100.635 138.777 102.299 139.246 103.536C139.716 104.774 140.334 105.648 141.102 106.16C141.87 106.63 142.83 106.864 143.982 106.864C145.134 106.864 146.094 106.63 146.862 106.16C147.63 105.648 148.249 104.774 148.718 103.536C149.188 102.299 149.529 100.635 149.742 98.5444C149.956 96.4537 150.062 93.787 150.062 90.5444ZM158.958 90.2244C158.958 94.1497 158.766 97.5844 158.382 100.528C158.041 103.472 157.316 105.926 156.206 107.888C155.14 109.851 153.625 111.323 151.662 112.304C149.7 113.286 147.14 113.776 143.982 113.776C140.825 113.776 138.265 113.286 136.302 112.304C134.34 111.323 132.804 109.851 131.694 107.888C130.628 105.926 129.902 103.472 129.518 100.528C129.177 97.5844 129.006 94.1497 129.006 90.2244C129.006 86.4697 129.198 83.1844 129.582 80.3684C130.009 77.5524 130.777 75.2057 131.886 73.3284C132.996 71.451 134.51 70.043 136.43 69.1044C138.393 68.1657 140.91 67.6964 143.982 67.6964C147.054 67.6964 149.55 68.1657 151.47 69.1044C153.433 70.043 154.969 71.451 156.078 73.3284C157.188 75.2057 157.934 77.5524 158.318 80.3684C158.745 83.1844 158.958 86.4697 158.958 90.2244Z" fill="#FF9800"/>
<defs>
<filter id="filter0_d" x="0.734253" y="0.734238" width="214.266" height="214.266" filterUnits="userSpaceOnUse" color-interpolation-filters="sRGB">
<feFlood flood-opacity="0" result="BackgroundImageFix"/>
<feColorMatrix in="SourceAlpha" type="matrix" values="0 0 0 0 0 0 0 0 0 0 0 0 0 0 0 0 0 0 127 0"/>
<feOffset dy="15"/>
<feGaussianBlur stdDeviation="10"/>
<feColorMatrix type="matrix" values="0 0 0 0 0 0 0 0 0 0 0 0 0 0 0 0 0 0 0.1 0"/>
<feBlend mode="normal" in2="BackgroundImageFix" result="effect1_dropShadow"/>
<feBlend mode="normal" in="SourceGraphic" in2="effect1_dropShadow" result="shape"/>
</filter>
</defs>
</svg>
